<svg width="37" height="40" viewBox="0 0 37 40" fill="none" xmlns="http://www.w3.org/2000/svg">
<path d="M36.0832 10.4454H28.0793V39.7321H36.0832V10.4454Z" fill="#1D1D1B"/>
<path d="M0.211548 10.4454V39.7321H8.21542V10.4454H0.211548Z" fill="#1D1D1B"/>
<path d="M20.2843 10.4454L8.21527 39.7321H16.4667L28.0736 10.4454H24.8886H20.2843Z" fill="#1D1D1B"/>
<path d="M32.0785 -5.58042e-05C31.305 0.0150197 30.5531 0.256798 29.9173 0.694934C29.2815 1.13307 28.7901 1.74805 28.5047 2.46268C28.2194 3.17732 28.1528 3.95978 28.3134 4.71186C28.474 5.46395 28.8545 6.15215 29.4073 6.69013C29.9602 7.22807 30.6605 7.59182 31.4206 7.73563C32.1807 7.87951 32.9665 7.79713 33.6797 7.49882C34.3928 7.20045 35.0013 6.69945 35.429 6.05872C35.8565 5.41797 36.0842 4.66601 36.0832 3.89718C36.0717 2.85292 35.6433 1.85592 34.8925 1.12518C34.1416 0.394452 33.1295 -0.0102587 32.0785 -5.58042e-05Z" fill="#1D1D1B"/>
</svg>
