<svg width="202" height="50" viewBox="0 0 202 50" fill="none" xmlns="http://www.w3.org/2000/svg">
<path d="M34.16 10V40H26.6V13.28L30.04 16.68H7.08L10.48 13.28V40H2.92V10H34.16ZM27.5903 40V10H35.0303V36.08L32.8303 35.64L50.8303 10H60.6703V40H53.2703V13.48L55.4303 13.92L37.1903 40H27.5903Z" fill="white"/>
<path d="M84.96 35.28V29.28H94.96C96.1333 29.28 97.1467 29.08 98 28.68C98.8533 28.28 99.5067 27.7067 99.96 26.96C100.44 26.1867 100.68 25.28 100.68 24.24C100.68 23.2 100.44 22.3067 99.96 21.56C99.5067 20.8133 98.8533 20.24 98 19.84C97.1467 19.44 96.1333 19.24 94.96 19.24H85V13.28H95.36C98.0533 13.28 100.36 13.7333 102.28 14.64C104.2 15.5467 105.68 16.8267 106.72 18.48C107.787 20.1067 108.32 22.0267 108.32 24.24C108.32 26.4533 107.787 28.3867 106.72 30.04C105.68 31.6933 104.2 32.9867 102.28 33.92C100.36 34.8267 98.0533 35.28 95.36 35.28H84.96ZM73 35.28C70.36 35.28 68.0667 34.8267 66.12 33.92C64.2 32.9867 62.7067 31.6933 61.64 30.04C60.6 28.3867 60.08 26.4533 60.08 24.24C60.08 22.0267 60.6 20.1067 61.64 18.48C62.7067 16.8267 64.2 15.5467 66.12 14.64C68.0667 13.7333 70.36 13.28 73 13.28H83.36V19.24H73.4C72.2267 19.24 71.2133 19.44 70.36 19.84C69.5067 20.24 68.8533 20.8133 68.4 21.56C67.9467 22.3067 67.72 23.2 67.72 24.24C67.72 25.28 67.9467 26.1867 68.4 26.96C68.8533 27.7067 69.5067 28.28 70.36 28.68C71.2133 29.08 72.2267 29.28 73.4 29.28H83.4V35.28H73ZM80.4 40.92V9.08H87.96V40.92H80.4Z" fill="white"/>
<path d="M146.44 18.44H139.04C138.907 17.32 138.427 16.4133 137.6 15.72C136.8 15 135.653 14.64 134.16 14.64C133.28 14.64 132.52 14.76 131.88 15C131.267 15.24 130.787 15.5733 130.44 16C130.093 16.4267 129.92 16.9467 129.92 17.56C129.92 18.0133 130.067 18.4933 130.36 19C130.653 19.48 131.133 20.0133 131.8 20.6L154.48 40H145.12L126.12 23.8C124.92 22.76 123.933 21.6933 123.16 20.6C122.413 19.48 122.04 18.3067 122.04 17.08C122.04 15.5333 122.493 14.1867 123.4 13.04C124.333 11.8933 125.68 11 127.44 10.36C129.227 9.69333 131.373 9.36 133.88 9.36C136.467 9.36 138.68 9.76 140.52 10.56C142.36 11.36 143.773 12.44 144.76 13.8C145.773 15.16 146.333 16.7067 146.44 18.44ZM144.92 23.6H152.68L143.52 34.16C142.24 35.68 140.933 36.92 139.6 37.88C138.293 38.8133 136.867 39.5067 135.32 39.96C133.8 40.4133 132.053 40.64 130.08 40.64C127.627 40.64 125.52 40.2533 123.76 39.48C122 38.68 120.64 37.6133 119.68 36.28C118.747 34.9467 118.28 33.44 118.28 31.76C118.28 30.2667 118.667 28.9067 119.44 27.68C120.24 26.4533 121.48 25.4267 123.16 24.6C124.84 23.7467 127.013 23.1867 129.68 22.92L131.24 25.84C129.48 26.2133 128.107 26.84 127.12 27.72C126.16 28.5733 125.68 29.6 125.68 30.8C125.68 31.5733 125.907 32.2933 126.36 32.96C126.813 33.6 127.44 34.1067 128.24 34.48C129.067 34.8533 130.04 35.04 131.16 35.04C133.107 35.04 134.72 34.6667 136 33.92C137.28 33.1733 138.387 32.1867 139.32 30.96L144.92 23.6Z" fill="white"/>
<g clip-path="url(#clip0_12_368)">
<path d="M201.083 10.4454H193.079V39.7321H201.083V10.4454Z" fill="white"/>
<path d="M165.212 10.4454V39.7321H173.215V10.4454H165.212Z" fill="white"/>
<path d="M185.284 10.4454L173.215 39.7321H181.467L193.074 10.4454H189.889H185.284Z" fill="white"/>
<path d="M197.079 -5.58042e-05C196.305 0.0150197 195.553 0.256798 194.917 0.694934C194.281 1.13307 193.79 1.74805 193.505 2.46268C193.219 3.17732 193.153 3.95978 193.313 4.71186C193.474 5.46395 193.855 6.15215 194.407 6.69013C194.96 7.22807 195.661 7.59182 196.421 7.73563C197.181 7.87951 197.967 7.79713 198.68 7.49882C199.393 7.20045 200.001 6.69945 200.429 6.05872C200.857 5.41797 201.084 4.66601 201.083 3.89718C201.072 2.85292 200.643 1.85592 199.892 1.12518C199.142 0.394452 198.13 -0.0102587 197.079 -5.58042e-05Z" fill="white"/>
</g>
<defs>
<clipPath id="clip0_12_368">
<rect width="37" height="40.0002" fill="white" transform="translate(165)"/>
</clipPath>
</defs>
</svg>
